<mxfile host="app.diagrams.net" agent="Mozilla/5.0 (Macintosh; Intel Mac OS X 10_15_7) AppleWebKit/537.36 (KHTML, like Gecko) Chrome/133.0.0.0 Safari/537.36" version="26.1.1">
  <diagram name="Page-1" id="e7e014a7-5840-1c2e-5031-d8a46d1fe8dd">
    <mxGraphModel dx="1674" dy="761" grid="1" gridSize="10" guides="1" tooltips="1" connect="1" arrows="1" fold="1" page="1" pageScale="1" pageWidth="1169" pageHeight="826" background="none" math="0" shadow="0">
      <root>
        <mxCell id="0" />
        <mxCell id="1" parent="0" />
        <mxCell id="2" value="zzbmlogic" style="swimlane;whiteSpace=wrap" parent="1" vertex="1">
          <mxGeometry x="164.5" y="128" width="280" height="792" as="geometry" />
        </mxCell>
        <mxCell id="LmL5kI_IVWl4ePM8v6_V-45" value="根据场景查询品类品牌" style="rounded=1;whiteSpace=wrap;html=1;arcSize=40;fontColor=#000000;fillColor=#ffffc0;strokeColor=#ff0000;" vertex="1" parent="2">
          <mxGeometry x="95.5" y="72" width="120" height="40" as="geometry" />
        </mxCell>
        <mxCell id="3" value="luxuryrecycle" style="swimlane;whiteSpace=wrap" parent="1" vertex="1">
          <mxGeometry x="445" y="128" width="280" height="792" as="geometry" />
        </mxCell>
        <mxCell id="LmL5kI_IVWl4ePM8v6_V-48" value="获取历史估价记录" style="rounded=1;whiteSpace=wrap;html=1;arcSize=40;fontColor=#000000;fillColor=#ffffc0;strokeColor=#ff0000;" vertex="1" parent="3">
          <mxGeometry x="80" y="72" width="120" height="40" as="geometry" />
        </mxCell>
        <mxCell id="LmL5kI_IVWl4ePM8v6_V-50" value="获取系列" style="rounded=1;whiteSpace=wrap;html=1;arcSize=40;fontColor=#000000;fillColor=#ffffc0;strokeColor=#ff0000;" vertex="1" parent="3">
          <mxGeometry x="80" y="172" width="120" height="40" as="geometry" />
        </mxCell>
        <mxCell id="LmL5kI_IVWl4ePM8v6_V-49" value="" style="edgeStyle=orthogonalEdgeStyle;html=1;verticalAlign=bottom;endArrow=open;endSize=8;strokeColor=#ff0000;rounded=0;entryX=0.5;entryY=0;entryDx=0;entryDy=0;" edge="1" source="LmL5kI_IVWl4ePM8v6_V-48" parent="3" target="LmL5kI_IVWl4ePM8v6_V-50">
          <mxGeometry relative="1" as="geometry">
            <mxPoint x="140" y="222" as="targetPoint" />
          </mxGeometry>
        </mxCell>
        <mxCell id="LmL5kI_IVWl4ePM8v6_V-60" style="edgeStyle=orthogonalEdgeStyle;rounded=0;orthogonalLoop=1;jettySize=auto;html=1;" edge="1" parent="3" source="LmL5kI_IVWl4ePM8v6_V-52" target="LmL5kI_IVWl4ePM8v6_V-56">
          <mxGeometry relative="1" as="geometry" />
        </mxCell>
        <mxCell id="LmL5kI_IVWl4ePM8v6_V-52" value="是否有想要回收的系列" style="rhombus;whiteSpace=wrap;html=1;" vertex="1" parent="3">
          <mxGeometry x="77" y="272" width="125" height="48" as="geometry" />
        </mxCell>
        <mxCell id="LmL5kI_IVWl4ePM8v6_V-51" value="" style="edgeStyle=orthogonalEdgeStyle;html=1;verticalAlign=bottom;endArrow=open;endSize=8;strokeColor=#ff0000;rounded=0;" edge="1" source="LmL5kI_IVWl4ePM8v6_V-50" parent="3" target="LmL5kI_IVWl4ePM8v6_V-52">
          <mxGeometry relative="1" as="geometry">
            <mxPoint x="140" y="332" as="targetPoint" />
          </mxGeometry>
        </mxCell>
        <mxCell id="LmL5kI_IVWl4ePM8v6_V-56" value="获取型号" style="rounded=1;whiteSpace=wrap;html=1;arcSize=40;fontColor=#000000;fillColor=#ffffc0;strokeColor=#ff0000;" vertex="1" parent="3">
          <mxGeometry x="79.5" y="362" width="120" height="40" as="geometry" />
        </mxCell>
        <mxCell id="LmL5kI_IVWl4ePM8v6_V-57" value="" style="edgeStyle=orthogonalEdgeStyle;html=1;verticalAlign=bottom;endArrow=open;endSize=8;strokeColor=#ff0000;rounded=0;" edge="1" source="LmL5kI_IVWl4ePM8v6_V-56" parent="3" target="LmL5kI_IVWl4ePM8v6_V-63">
          <mxGeometry relative="1" as="geometry">
            <mxPoint x="140" y="462" as="targetPoint" />
          </mxGeometry>
        </mxCell>
        <mxCell id="LmL5kI_IVWl4ePM8v6_V-61" value="获取属性信息" style="rounded=1;whiteSpace=wrap;html=1;arcSize=40;fontColor=#000000;fillColor=#ffffc0;strokeColor=#ff0000;" vertex="1" parent="3">
          <mxGeometry x="79.5" y="582" width="120" height="40" as="geometry" />
        </mxCell>
        <mxCell id="LmL5kI_IVWl4ePM8v6_V-62" value="" style="edgeStyle=orthogonalEdgeStyle;html=1;verticalAlign=bottom;endArrow=open;endSize=8;strokeColor=#ff0000;rounded=0;entryX=0.5;entryY=0;entryDx=0;entryDy=0;" edge="1" source="LmL5kI_IVWl4ePM8v6_V-61" parent="3" target="LmL5kI_IVWl4ePM8v6_V-68">
          <mxGeometry relative="1" as="geometry">
            <mxPoint x="140" y="693" as="targetPoint" />
          </mxGeometry>
        </mxCell>
        <mxCell id="LmL5kI_IVWl4ePM8v6_V-67" style="edgeStyle=orthogonalEdgeStyle;rounded=0;orthogonalLoop=1;jettySize=auto;html=1;" edge="1" parent="3" source="LmL5kI_IVWl4ePM8v6_V-63" target="LmL5kI_IVWl4ePM8v6_V-61">
          <mxGeometry relative="1" as="geometry" />
        </mxCell>
        <mxCell id="LmL5kI_IVWl4ePM8v6_V-63" value="是否有想要回收的型号" style="rhombus;whiteSpace=wrap;html=1;" vertex="1" parent="3">
          <mxGeometry x="77" y="472" width="125" height="48" as="geometry" />
        </mxCell>
        <mxCell id="LmL5kI_IVWl4ePM8v6_V-68" value="获取估价" style="rounded=1;whiteSpace=wrap;html=1;arcSize=40;fontColor=#000000;fillColor=#ffffc0;strokeColor=#ff0000;" vertex="1" parent="3">
          <mxGeometry x="79.5" y="698" width="120" height="40" as="geometry" />
        </mxCell>
        <mxCell id="4" value="私域" style="swimlane;whiteSpace=wrap" parent="1" vertex="1">
          <mxGeometry x="724.5" y="128" width="280" height="792" as="geometry" />
        </mxCell>
        <mxCell id="LmL5kI_IVWl4ePM8v6_V-53" value="私域" style="rounded=1;whiteSpace=wrap;html=1;arcSize=40;fontColor=#000000;fillColor=#ffffc0;strokeColor=#ff0000;" vertex="1" parent="4">
          <mxGeometry x="80" y="476" width="120" height="40" as="geometry" />
        </mxCell>
        <mxCell id="LmL5kI_IVWl4ePM8v6_V-46" value="" style="edgeStyle=orthogonalEdgeStyle;html=1;verticalAlign=bottom;endArrow=open;endSize=8;strokeColor=#ff0000;rounded=0;exitX=0.5;exitY=1;exitDx=0;exitDy=0;entryX=0;entryY=0.5;entryDx=0;entryDy=0;" edge="1" source="LmL5kI_IVWl4ePM8v6_V-45" parent="1" target="LmL5kI_IVWl4ePM8v6_V-50">
          <mxGeometry relative="1" as="geometry">
            <mxPoint x="320" y="310" as="targetPoint" />
          </mxGeometry>
        </mxCell>
        <mxCell id="LmL5kI_IVWl4ePM8v6_V-55" style="edgeStyle=orthogonalEdgeStyle;rounded=0;orthogonalLoop=1;jettySize=auto;html=1;entryX=0;entryY=0.5;entryDx=0;entryDy=0;" edge="1" parent="1" source="LmL5kI_IVWl4ePM8v6_V-52" target="LmL5kI_IVWl4ePM8v6_V-53">
          <mxGeometry relative="1" as="geometry" />
        </mxCell>
        <mxCell id="LmL5kI_IVWl4ePM8v6_V-58" value="否" style="edgeLabel;html=1;align=center;verticalAlign=middle;resizable=0;points=[];" vertex="1" connectable="0" parent="LmL5kI_IVWl4ePM8v6_V-55">
          <mxGeometry x="-0.2127" relative="1" as="geometry">
            <mxPoint as="offset" />
          </mxGeometry>
        </mxCell>
        <mxCell id="LmL5kI_IVWl4ePM8v6_V-65" style="edgeStyle=orthogonalEdgeStyle;rounded=0;orthogonalLoop=1;jettySize=auto;html=1;entryX=0;entryY=0.5;entryDx=0;entryDy=0;" edge="1" parent="1" source="LmL5kI_IVWl4ePM8v6_V-63" target="LmL5kI_IVWl4ePM8v6_V-53">
          <mxGeometry relative="1" as="geometry">
            <mxPoint x="800" y="640" as="targetPoint" />
          </mxGeometry>
        </mxCell>
        <mxCell id="LmL5kI_IVWl4ePM8v6_V-66" value="否" style="edgeLabel;html=1;align=center;verticalAlign=middle;resizable=0;points=[];" vertex="1" connectable="0" parent="LmL5kI_IVWl4ePM8v6_V-65">
          <mxGeometry x="-0.2762" relative="1" as="geometry">
            <mxPoint as="offset" />
          </mxGeometry>
        </mxCell>
      </root>
    </mxGraphModel>
  </diagram>
</mxfile>
